<svg width="1200" height="680" viewBox="0 0 1200 680" fill="none" xmlns="http://www.w3.org/2000/svg">
  <rect width="1200" height="680" rx="16" fill="#020617"/>
  <!-- Top Navigation Bar -->
  <rect x="0" y="0" width="1200" height="64" fill="#0f172a" stroke="#1e293b" stroke-width="1"/>
  <circle cx="40" cy="32" r="18" fill="#042f2e" stroke="#2dd4bf" stroke-width="2"/>
  <text x="70" y="37" fill="#ffffff" font-family="sans-serif" font-size="16" font-weight="bold">Smart Resume Screener</text>
  <text x="1018" y="37" fill="#6ee7b7" font-family="sans-serif" font-size="11" font-weight="bold">REAL-TIME ENGINE</text>

  <!-- Sidebar -->
  <rect x="24" y="88" width="220" height="568" rx="16" fill="#0f172a" stroke="#1e293b" stroke-width="1"/>
  <text x="56" y="129" fill="#94a3b8" font-family="sans-serif" font-size="13" font-weight="500">📊 Dashboard</text>
  <text x="56" y="177" fill="#94a3b8" font-family="sans-serif" font-size="13" font-weight="500">☁️ Upload Resumes</text>
  <text x="56" y="225" fill="#94a3b8" font-family="sans-serif" font-size="13" font-weight="500">💼 Job Description</text>
  <text x="56" y="273" fill="#94a3b8" font-family="sans-serif" font-size="13" font-weight="500">🏆 Screening Results</text>
  <text x="56" y="321" fill="#94a3b8" font-family="sans-serif" font-size="13" font-weight="500">👤 Candidate Details</text>
  <rect x="36" y="346" width="196" height="40" rx="10" fill="#0d9488"/>
  <text x="56" y="371" fill="#ffffff" font-family="sans-serif" font-size="13" font-weight="bold">⚖️ Compare Candidates</text>

  <!-- Header -->
  <rect x="268" y="88" width="908" height="60" rx="16" fill="#ffffff"/>
  <text x="296" y="124" fill="#0f172a" font-family="sans-serif" font-size="18" font-weight="bold">Candidate Comparison Matrix: Aarav Sharma vs Priya Reddy vs Rahul Verma</text>

  <!-- Radar Chart Card -->
  <rect x="268" y="160" width="908" height="180" rx="16" fill="#0f172a" stroke="#1e293b"/>
  <text x="292" y="186" fill="#f8fafc" font-family="sans-serif" font-size="12" font-weight="bold">COMPETENCY RADAR OVERLAY</text>
  <!-- Mock Radar Polygon -->
  <polygon points="722,210 770,240 755,300 690,300 670,240" fill="#2dd4bf" fill-opacity="0.3" stroke="#2dd4bf" stroke-width="2"/>
  <polygon points="722,225 760,250 740,290 700,290 685,250" fill="#38bdf8" fill-opacity="0.3" stroke="#38bdf8" stroke-width="2"/>
  <text x="400" y="235" fill="#2dd4bf" font-family="sans-serif" font-size="12" font-weight="bold">■ Aarav Sharma (Lead ML)</text>
  <text x="400" y="260" fill="#38bdf8" font-family="sans-serif" font-size="12" font-weight="bold">■ Priya Reddy (Senior Backend &amp; ML)</text>
  <text x="400" y="285" fill="#f59e0b" font-family="sans-serif" font-size="12" font-weight="bold">■ Rahul Verma (Data Scientist)</text>

  <!-- Comparison Matrix Table -->
  <rect x="268" y="352" width="908" height="304" rx="16" fill="#ffffff"/>
  <rect x="268" y="352" width="908" height="40" rx="16" fill="#f8fafc"/>
  <text x="292" y="377" fill="#64748b" font-family="sans-serif" font-size="11" font-weight="bold">EVALUATION DIMENSION</text>
  <text x="500" y="377" fill="#0f172a" font-family="sans-serif" font-size="12" font-weight="bold">Aarav Sharma</text>
  <text x="730" y="377" fill="#0f172a" font-family="sans-serif" font-size="12" font-weight="bold">Priya Reddy</text>
  <text x="960" y="377" fill="#0f172a" font-family="sans-serif" font-size="12" font-weight="bold">Rahul Verma</text>

  <!-- Row: Overall Score -->
  <line x1="268" y1="392" x2="1176" y2="392" stroke="#f1f5f9"/>
  <text x="292" y="420" fill="#334155" font-family="sans-serif" font-size="11" font-weight="bold">Overall Match Score</text>
  <text x="500" y="420" fill="#059669" font-family="monospace" font-size="13" font-weight="bold">91.5% [HIGHEST]</text>
  <text x="730" y="420" fill="#0d9488" font-family="monospace" font-size="13" font-weight="bold">84.0%</text>
  <text x="960" y="420" fill="#2563eb" font-family="monospace" font-size="13" font-weight="bold">72.0%</text>

  <!-- Row: Tech Skills -->
  <line x1="268" y1="436" x2="1176" y2="436" stroke="#f1f5f9"/>
  <text x="292" y="464" fill="#334155" font-family="sans-serif" font-size="11" font-weight="bold">Tech Skills (35%)</text>
  <text x="500" y="464" fill="#0f172a" font-family="sans-serif" font-size="11">32.0 / 35 [Best]</text>
  <text x="730" y="464" fill="#0f172a" font-family="sans-serif" font-size="11">28.0 / 35</text>
  <text x="960" y="464" fill="#0f172a" font-family="sans-serif" font-size="11">22.0 / 35</text>

  <!-- Row: Experience -->
  <line x1="268" y1="480" x2="1176" y2="480" stroke="#f1f5f9"/>
  <text x="292" y="508" fill="#334155" font-family="sans-serif" font-size="11" font-weight="bold">Experience (20%)</text>
  <text x="500" y="508" fill="#0f172a" font-family="sans-serif" font-size="11">5.0 Years (19.5/20)</text>
  <text x="730" y="508" fill="#0f172a" font-family="sans-serif" font-size="11">4.0 Years (18.0/20)</text>
  <text x="960" y="508" fill="#0f172a" font-family="sans-serif" font-size="11">2.5 Years (15.0/20)</text>

  <!-- Row: Matched Skills -->
  <line x1="268" y1="524" x2="1176" y2="524" stroke="#f1f5f9"/>
  <text x="292" y="552" fill="#334155" font-family="sans-serif" font-size="11" font-weight="bold">Core Skills</text>
  <text x="500" y="552" fill="#047857" font-family="sans-serif" font-size="10">Python, SQL, PyTorch, AWS</text>
  <text x="730" y="552" fill="#047857" font-family="sans-serif" font-size="10">Python, FastAPI, Docker, SQL</text>
  <text x="960" y="552" fill="#047857" font-family="sans-serif" font-size="10">Python, Scikit-learn, SQL</text>

  <!-- Row: Recruiter Decision -->
  <line x1="268" y1="568" x2="1176" y2="568" stroke="#f1f5f9"/>
  <text x="292" y="596" fill="#334155" font-family="sans-serif" font-size="11" font-weight="bold">Hiring Decision</text>
  <text x="500" y="596" fill="#065f46" font-family="sans-serif" font-size="11" font-weight="bold">✓ Shortlisted</text>
  <text x="730" y="596" fill="#065f46" font-family="sans-serif" font-size="11" font-weight="bold">✓ Shortlisted</text>
  <text x="960" y="596" fill="#92400e" font-family="sans-serif" font-size="11" font-weight="bold">⏱ In Review</text>
</svg>
